<mxfile host="Electron" modified="2025-05-12T06:32:52.297Z" agent="Mozilla/5.0 (Windows NT 10.0; Win64; x64) AppleWebKit/537.36 (KHTML, like Gecko) draw.io/23.1.5 Chrome/120.0.6099.109 Electron/28.1.0 Safari/537.36" etag="LqaiV5glYTIteQz8jPcO" version="23.1.5" type="device">
  <diagram name="Страница — 1" id="2xf0zdHDKTg9vqtkdUgH">
    <mxGraphModel dx="2554" dy="1012" grid="1" gridSize="10" guides="1" tooltips="1" connect="1" arrows="1" fold="1" page="1" pageScale="1" pageWidth="827" pageHeight="1169" math="0" shadow="0">
      <root>
        <mxCell id="0" />
        <mxCell id="1" parent="0" />
        <mxCell id="9KOpK2-u_YjPfHabHejo-5" style="edgeStyle=orthogonalEdgeStyle;rounded=0;orthogonalLoop=1;jettySize=auto;html=1;entryX=0.5;entryY=0;entryDx=0;entryDy=0;endArrow=none;endFill=0;fontFamily=Times New Roman;" parent="1" source="9KOpK2-u_YjPfHabHejo-2" target="9KOpK2-u_YjPfHabHejo-4" edge="1">
          <mxGeometry relative="1" as="geometry" />
        </mxCell>
        <mxCell id="9KOpK2-u_YjPfHabHejo-2" value="Начало" style="strokeWidth=1;html=1;shape=mxgraph.flowchart.terminator;whiteSpace=wrap;fontFamily=Times New Roman;" parent="1" vertex="1">
          <mxGeometry x="369" y="210" width="90" height="50" as="geometry" />
        </mxCell>
        <mxCell id="9KOpK2-u_YjPfHabHejo-8" style="edgeStyle=orthogonalEdgeStyle;rounded=0;orthogonalLoop=1;jettySize=auto;html=1;endArrow=none;endFill=0;entryX=0.5;entryY=0;entryDx=0;entryDy=0;fontFamily=Times New Roman;" parent="1" source="9KOpK2-u_YjPfHabHejo-4" target="9KOpK2-u_YjPfHabHejo-9" edge="1">
          <mxGeometry relative="1" as="geometry">
            <mxPoint x="414" y="440" as="targetPoint" />
          </mxGeometry>
        </mxCell>
        <mxCell id="9KOpK2-u_YjPfHabHejo-4" value="&lt;div style=&quot;&quot;&gt;&lt;font style=&quot;background-color: initial;&quot;&gt;t=0, T&lt;sub&gt;прихода&lt;/sub&gt;=0, X&lt;sub&gt;вх&lt;/sub&gt;=1, Х&lt;sub&gt;вх1&lt;/sub&gt;=1,&amp;nbsp;Х&lt;sub style=&quot;border-color: var(--border-color);&quot;&gt;вх2&lt;/sub&gt;=0,&amp;nbsp;Х&lt;sub style=&quot;border-color: var(--border-color);&quot;&gt;&lt;font style=&quot;font-size: 12px;&quot;&gt;вх3&lt;/font&gt;&lt;/sub&gt;=0, T&lt;sub&gt;поиск1&lt;/sub&gt;=3,&amp;nbsp;T&lt;sub style=&quot;border-color: var(--border-color);&quot;&gt;поиск2&lt;/sub&gt;=0,&amp;nbsp;T&lt;sub style=&quot;border-color: var(--border-color);&quot;&gt;поиск3&lt;/sub&gt;=0,T&lt;sub&gt;обсл1&lt;/sub&gt;=7,&amp;nbsp;T&lt;sub style=&quot;border-color: var(--border-color);&quot;&gt;обсл2&lt;/sub&gt;=0,&amp;nbsp;&lt;/font&gt;&lt;/div&gt;&lt;div style=&quot;&quot;&gt;&lt;font style=&quot;background-color: initial;&quot;&gt;T&lt;sub style=&quot;border-color: var(--border-color);&quot;&gt;обсл3&lt;/sub&gt;=0, X&lt;sub&gt;вых1&lt;/sub&gt;=0,&amp;nbsp;X&lt;sub style=&quot;border-color: var(--border-color);&quot;&gt;вых2&lt;/sub&gt;=0,&amp;nbsp;X&lt;sub style=&quot;border-color: var(--border-color);&quot;&gt;вых3&lt;/sub&gt;=0, Z&lt;sub&gt;тек_обс1&lt;/sub&gt;=1,&amp;nbsp;&lt;/font&gt;&lt;/div&gt;&lt;div style=&quot;&quot;&gt;&lt;font style=&quot;background-color: initial;&quot;&gt;Z&lt;sub style=&quot;border-color: var(--border-color);&quot;&gt;тек_обс2&lt;/sub&gt;=0,&amp;nbsp;Z&lt;sub style=&quot;border-color: var(--border-color);&quot;&gt;тек_обс3&lt;/sub&gt;=0, Z&lt;sub&gt;обс1&lt;/sub&gt;=0,&amp;nbsp;Z&lt;sub&gt;обс2&lt;/sub&gt;=0,&amp;nbsp;Z&lt;sub&gt;обс3&lt;/sub&gt;=0,&lt;/font&gt;&lt;span style=&quot;background-color: initial;&quot;&gt;&amp;nbsp;&lt;/span&gt;&lt;/div&gt;&lt;div style=&quot;&quot;&gt;&lt;span style=&quot;background-color: initial;&quot;&gt;Z&lt;/span&gt;&lt;sub style=&quot;background-color: initial; border-color: var(--border-color);&quot;&gt;общ1&lt;/sub&gt;&lt;span style=&quot;background-color: initial;&quot;&gt;=1,&amp;nbsp;Z&lt;/span&gt;&lt;sub style=&quot;background-color: initial; border-color: var(--border-color);&quot;&gt;общ2&lt;/sub&gt;&lt;span style=&quot;background-color: initial;&quot;&gt;=0,&amp;nbsp;Z&lt;/span&gt;&lt;sub style=&quot;background-color: initial; border-color: var(--border-color);&quot;&gt;общ3&lt;/sub&gt;&lt;span style=&quot;background-color: initial;&quot;&gt;=0,&amp;nbsp;&lt;/span&gt;&lt;span style=&quot;background-color: initial;&quot;&gt;Z&lt;/span&gt;&lt;sub style=&quot;background-color: initial; border-color: var(--border-color);&quot;&gt;оч1&lt;/sub&gt;&lt;span style=&quot;background-color: initial;&quot;&gt;=1,&amp;nbsp;Z&lt;/span&gt;&lt;sub style=&quot;background-color: initial; border-color: var(--border-color);&quot;&gt;оч2&lt;/sub&gt;&lt;span style=&quot;background-color: initial;&quot;&gt;=0,&amp;nbsp;Z&lt;/span&gt;&lt;sub style=&quot;background-color: initial; border-color: var(--border-color);&quot;&gt;оч3&lt;/sub&gt;&lt;span style=&quot;background-color: initial;&quot;&gt;=0,&amp;nbsp;&lt;/span&gt;&lt;/div&gt;&lt;div style=&quot;&quot;&gt;&lt;span style=&quot;background-color: initial;&quot;&gt;Z&lt;/span&gt;&lt;sub style=&quot;background-color: initial; border-color: var(--border-color);&quot;&gt;оч_общая3&lt;/sub&gt;&lt;span style=&quot;background-color: initial; border-color: var(--border-color);&quot;&gt;=1, h=1,&amp;nbsp;T&lt;sub&gt;поиск_тов&lt;/sub&gt;=3, T&lt;sub&gt;входа&lt;/sub&gt;=2&lt;/span&gt;&lt;/div&gt;" style="rounded=0;whiteSpace=wrap;html=1;align=center;fontFamily=Times New Roman;" parent="1" vertex="1">
          <mxGeometry x="276" y="280" width="276" height="110" as="geometry" />
        </mxCell>
        <mxCell id="9KOpK2-u_YjPfHabHejo-13" style="edgeStyle=orthogonalEdgeStyle;rounded=0;orthogonalLoop=1;jettySize=auto;html=1;endArrow=none;endFill=0;entryX=0.5;entryY=0;entryDx=0;entryDy=0;fontFamily=Times New Roman;" parent="1" source="9KOpK2-u_YjPfHabHejo-9" target="9KOpK2-u_YjPfHabHejo-14" edge="1">
          <mxGeometry relative="1" as="geometry">
            <mxPoint x="414" y="600" as="targetPoint" />
          </mxGeometry>
        </mxCell>
        <mxCell id="9KOpK2-u_YjPfHabHejo-16" style="edgeStyle=orthogonalEdgeStyle;rounded=0;orthogonalLoop=1;jettySize=auto;html=1;endArrow=none;endFill=0;entryX=0.5;entryY=0;entryDx=0;entryDy=0;fontFamily=Times New Roman;" parent="1" source="9KOpK2-u_YjPfHabHejo-9" target="9KOpK2-u_YjPfHabHejo-18" edge="1">
          <mxGeometry relative="1" as="geometry">
            <mxPoint x="599.9999999999998" y="560" as="targetPoint" />
          </mxGeometry>
        </mxCell>
        <mxCell id="9KOpK2-u_YjPfHabHejo-9" value="T&lt;sub style=&quot;border-color: var(--border-color);&quot;&gt;прихода&lt;/sub&gt;&lt;span style=&quot;border-color: var(--border-color);&quot;&gt;&amp;gt;0&lt;/span&gt;" style="rhombus;whiteSpace=wrap;html=1;fontFamily=Times New Roman;" parent="1" vertex="1">
          <mxGeometry x="306" y="450" width="216" height="80" as="geometry" />
        </mxCell>
        <mxCell id="9KOpK2-u_YjPfHabHejo-11" value="Нет, время прихода &lt;br&gt;нужно обновить" style="text;html=1;align=left;verticalAlign=middle;resizable=0;points=[];autosize=1;strokeColor=none;fillColor=none;fontFamily=Times New Roman;" parent="1" vertex="1">
          <mxGeometry x="522" y="440" width="120" height="40" as="geometry" />
        </mxCell>
        <mxCell id="9KOpK2-u_YjPfHabHejo-12" value="Да, время прихода уменьшается" style="text;html=1;align=center;verticalAlign=middle;resizable=0;points=[];autosize=1;strokeColor=none;fillColor=none;fontFamily=Times New Roman;" parent="1" vertex="1">
          <mxGeometry x="200" y="528" width="190" height="30" as="geometry" />
        </mxCell>
        <mxCell id="9KOpK2-u_YjPfHabHejo-22" style="edgeStyle=orthogonalEdgeStyle;rounded=0;orthogonalLoop=1;jettySize=auto;html=1;entryX=0.5;entryY=0;entryDx=0;entryDy=0;endArrow=none;endFill=0;fontFamily=Times New Roman;" parent="1" source="9KOpK2-u_YjPfHabHejo-14" target="9KOpK2-u_YjPfHabHejo-21" edge="1">
          <mxGeometry relative="1" as="geometry" />
        </mxCell>
        <mxCell id="9KOpK2-u_YjPfHabHejo-14" value="T&lt;sub style=&quot;border-color: var(--border-color);&quot;&gt;прихода&lt;/sub&gt;&lt;span style=&quot;border-color: var(--border-color);&quot;&gt;-=h&lt;/span&gt;" style="rounded=0;whiteSpace=wrap;html=1;fontFamily=Times New Roman;" parent="1" vertex="1">
          <mxGeometry x="354" y="559" width="120" height="26" as="geometry" />
        </mxCell>
        <mxCell id="9KOpK2-u_YjPfHabHejo-23" style="edgeStyle=orthogonalEdgeStyle;rounded=0;orthogonalLoop=1;jettySize=auto;html=1;entryX=0.5;entryY=0;entryDx=0;entryDy=0;endArrow=none;endFill=0;fontFamily=Times New Roman;" parent="1" source="9KOpK2-u_YjPfHabHejo-18" target="9KOpK2-u_YjPfHabHejo-21" edge="1">
          <mxGeometry relative="1" as="geometry">
            <mxPoint x="539.9999999999998" y="630" as="targetPoint" />
            <Array as="points">
              <mxPoint x="590" y="620" />
              <mxPoint x="414" y="620" />
            </Array>
          </mxGeometry>
        </mxCell>
        <mxCell id="9KOpK2-u_YjPfHabHejo-18" value="T&lt;sub style=&quot;border-color: var(--border-color);&quot;&gt;прихода&lt;/sub&gt;&lt;span style=&quot;border-color: var(--border-color);&quot;&gt;=&lt;/span&gt;T&lt;sub style=&quot;border-color: var(--border-color);&quot;&gt;входа&lt;/sub&gt;&lt;span style=&quot;border-color: var(--border-color);&quot;&gt;-1&lt;/span&gt;" style="rounded=0;whiteSpace=wrap;html=1;fontFamily=Times New Roman;" parent="1" vertex="1">
          <mxGeometry x="530" y="559" width="120" height="26" as="geometry" />
        </mxCell>
        <mxCell id="9KOpK2-u_YjPfHabHejo-24" style="edgeStyle=orthogonalEdgeStyle;rounded=0;orthogonalLoop=1;jettySize=auto;html=1;endArrow=none;endFill=0;fontFamily=Times New Roman;entryX=0.5;entryY=0;entryDx=0;entryDy=0;entryPerimeter=0;" parent="1" source="9KOpK2-u_YjPfHabHejo-21" target="hetKTDq1saLogg6b_bQB-109" edge="1">
          <mxGeometry relative="1" as="geometry">
            <mxPoint x="860" y="2210" as="targetPoint" />
            <Array as="points">
              <mxPoint x="900" y="690" />
              <mxPoint x="900" y="2170" />
              <mxPoint x="400" y="2170" />
              <mxPoint x="400" y="2210" />
            </Array>
          </mxGeometry>
        </mxCell>
        <mxCell id="9KOpK2-u_YjPfHabHejo-26" style="edgeStyle=orthogonalEdgeStyle;rounded=0;orthogonalLoop=1;jettySize=auto;html=1;endArrow=none;endFill=0;fontFamily=Times New Roman;entryX=0.5;entryY=0;entryDx=0;entryDy=0;" parent="1" source="9KOpK2-u_YjPfHabHejo-21" target="9KOpK2-u_YjPfHabHejo-29" edge="1">
          <mxGeometry relative="1" as="geometry">
            <mxPoint x="414" y="780" as="targetPoint" />
          </mxGeometry>
        </mxCell>
        <mxCell id="9KOpK2-u_YjPfHabHejo-21" value="t &amp;lt; 480" style="rhombus;whiteSpace=wrap;html=1;fontFamily=Times New Roman;" parent="1" vertex="1">
          <mxGeometry x="309" y="650" width="210" height="80" as="geometry" />
        </mxCell>
        <mxCell id="9KOpK2-u_YjPfHabHejo-25" value="Нет, время моделирования &lt;br&gt;закончилось" style="text;html=1;align=left;verticalAlign=middle;resizable=0;points=[];autosize=1;strokeColor=none;fillColor=none;fontFamily=Times New Roman;" parent="1" vertex="1">
          <mxGeometry x="559" y="650" width="160" height="40" as="geometry" />
        </mxCell>
        <mxCell id="9KOpK2-u_YjPfHabHejo-27" value="Да, моделирование продолжается" style="text;html=1;align=center;verticalAlign=middle;resizable=0;points=[];autosize=1;strokeColor=none;fillColor=none;fontFamily=Times New Roman;" parent="1" vertex="1">
          <mxGeometry x="185" y="710" width="200" height="30" as="geometry" />
        </mxCell>
        <mxCell id="9KOpK2-u_YjPfHabHejo-30" style="edgeStyle=orthogonalEdgeStyle;rounded=0;orthogonalLoop=1;jettySize=auto;html=1;fontFamily=Times New Roman;endArrow=none;endFill=0;entryX=0.5;entryY=0;entryDx=0;entryDy=0;" parent="1" source="9KOpK2-u_YjPfHabHejo-29" target="9KOpK2-u_YjPfHabHejo-35" edge="1">
          <mxGeometry relative="1" as="geometry">
            <mxPoint x="609.9999999999998" y="890" as="targetPoint" />
            <Array as="points">
              <mxPoint x="612" y="820" />
            </Array>
          </mxGeometry>
        </mxCell>
        <mxCell id="9KOpK2-u_YjPfHabHejo-32" style="edgeStyle=orthogonalEdgeStyle;rounded=0;orthogonalLoop=1;jettySize=auto;html=1;fontFamily=Times New Roman;endArrow=none;endFill=0;entryX=0.5;entryY=0;entryDx=0;entryDy=0;exitX=0;exitY=0.5;exitDx=0;exitDy=0;" parent="1" source="9KOpK2-u_YjPfHabHejo-29" target="9KOpK2-u_YjPfHabHejo-34" edge="1">
          <mxGeometry relative="1" as="geometry">
            <mxPoint x="414.0000000000002" y="910" as="targetPoint" />
          </mxGeometry>
        </mxCell>
        <mxCell id="9KOpK2-u_YjPfHabHejo-29" value="T&lt;sub style=&quot;border-color: var(--border-color);&quot;&gt;прихода&lt;/sub&gt;&lt;span style=&quot;border-color: var(--border-color);&quot;&gt;=0&lt;/span&gt;" style="rhombus;whiteSpace=wrap;html=1;fontFamily=Times New Roman;" parent="1" vertex="1">
          <mxGeometry x="309.5" y="780" width="209" height="80" as="geometry" />
        </mxCell>
        <mxCell id="9KOpK2-u_YjPfHabHejo-31" value="Нет, клиент не прибыл, поток закрыт" style="text;html=1;align=left;verticalAlign=middle;resizable=0;points=[];autosize=1;strokeColor=none;fillColor=none;fontFamily=Times New Roman;" parent="1" vertex="1">
          <mxGeometry x="522" y="790" width="210" height="30" as="geometry" />
        </mxCell>
        <mxCell id="9KOpK2-u_YjPfHabHejo-33" value="Да, клиент прибыл, поток открыт" style="text;html=1;align=center;verticalAlign=middle;resizable=0;points=[];autosize=1;strokeColor=none;fillColor=none;fontFamily=Times New Roman;" parent="1" vertex="1">
          <mxGeometry x="86" y="800" width="190" height="30" as="geometry" />
        </mxCell>
        <mxCell id="9KOpK2-u_YjPfHabHejo-39" style="edgeStyle=orthogonalEdgeStyle;rounded=0;orthogonalLoop=1;jettySize=auto;html=1;entryX=0.5;entryY=0;entryDx=0;entryDy=0;endArrow=none;endFill=0;fontFamily=Times New Roman;" parent="1" source="9KOpK2-u_YjPfHabHejo-34" target="9KOpK2-u_YjPfHabHejo-38" edge="1">
          <mxGeometry relative="1" as="geometry" />
        </mxCell>
        <mxCell id="9KOpK2-u_YjPfHabHejo-34" value="Х&lt;sub style=&quot;border-color: var(--border-color);&quot;&gt;вх&lt;/sub&gt;&lt;span style=&quot;&quot;&gt;=1&lt;/span&gt;" style="rounded=0;whiteSpace=wrap;html=1;fontFamily=Times New Roman;" parent="1" vertex="1">
          <mxGeometry x="220" y="840" width="120" height="30" as="geometry" />
        </mxCell>
        <mxCell id="Z-j3Qhin0witb1v5EF3L-1" style="edgeStyle=orthogonalEdgeStyle;rounded=0;orthogonalLoop=1;jettySize=auto;html=1;endArrow=none;endFill=0;" parent="1" source="9KOpK2-u_YjPfHabHejo-35" edge="1">
          <mxGeometry relative="1" as="geometry">
            <mxPoint x="280" y="880" as="targetPoint" />
            <Array as="points">
              <mxPoint x="612" y="880" />
            </Array>
          </mxGeometry>
        </mxCell>
        <mxCell id="9KOpK2-u_YjPfHabHejo-35" value="Х&lt;sub style=&quot;border-color: var(--border-color);&quot;&gt;вх&lt;/sub&gt;&lt;span style=&quot;&quot;&gt;=0&lt;/span&gt;" style="rounded=0;whiteSpace=wrap;html=1;fontFamily=Times New Roman;" parent="1" vertex="1">
          <mxGeometry x="552" y="830" width="120" height="30" as="geometry" />
        </mxCell>
        <mxCell id="hetKTDq1saLogg6b_bQB-2" style="edgeStyle=orthogonalEdgeStyle;rounded=0;orthogonalLoop=1;jettySize=auto;html=1;entryX=0.5;entryY=0;entryDx=0;entryDy=0;endArrow=none;endFill=0;fontFamily=Times New Roman;" parent="1" source="9KOpK2-u_YjPfHabHejo-38" target="hetKTDq1saLogg6b_bQB-1" edge="1">
          <mxGeometry relative="1" as="geometry" />
        </mxCell>
        <mxCell id="9KOpK2-u_YjPfHabHejo-38" value="&lt;span style=&quot;border-color: var(--border-color);&quot;&gt;Z&lt;sub style=&quot;border-color: var(--border-color); background-color: initial;&quot;&gt;оч1&lt;/sub&gt;&amp;lt;=&amp;nbsp;&lt;/span&gt;&lt;span style=&quot;border-color: var(--border-color);&quot;&gt;Z&lt;sub style=&quot;border-color: var(--border-color); background-color: initial;&quot;&gt;оч2&amp;nbsp;&lt;/sub&gt;и&amp;nbsp;&amp;nbsp;&lt;br&gt;&lt;/span&gt;Z&lt;sub style=&quot;border-color: var(--border-color); background-color: initial;&quot;&gt;оч1&lt;/sub&gt;&amp;lt;=&amp;nbsp;Z&lt;sub style=&quot;border-color: var(--border-color); background-color: initial;&quot;&gt;оч3&lt;/sub&gt;" style="rhombus;whiteSpace=wrap;html=1;fontFamily=Times New Roman;" parent="1" vertex="1">
          <mxGeometry x="175" y="890" width="210" height="80" as="geometry" />
        </mxCell>
        <mxCell id="hetKTDq1saLogg6b_bQB-31" style="edgeStyle=orthogonalEdgeStyle;rounded=0;orthogonalLoop=1;jettySize=auto;html=1;entryX=0.5;entryY=0;entryDx=0;entryDy=0;endArrow=none;endFill=0;fontFamily=Times New Roman;" parent="1" source="hetKTDq1saLogg6b_bQB-1" target="hetKTDq1saLogg6b_bQB-30" edge="1">
          <mxGeometry relative="1" as="geometry" />
        </mxCell>
        <mxCell id="hetKTDq1saLogg6b_bQB-1" value="Х&lt;sub style=&quot;border-color: var(--border-color);&quot;&gt;вх1&lt;/sub&gt;&lt;span style=&quot;&quot;&gt;=1&lt;/span&gt;" style="rounded=0;whiteSpace=wrap;html=1;fontFamily=Times New Roman;" parent="1" vertex="1">
          <mxGeometry x="200" y="1010" width="120" height="30" as="geometry" />
        </mxCell>
        <mxCell id="hetKTDq1saLogg6b_bQB-3" value="Да, клиент распределен к первому клерку, &lt;br&gt;так как у него наименьшая очередь" style="text;html=1;align=left;verticalAlign=middle;resizable=0;points=[];autosize=1;strokeColor=none;fillColor=none;fontFamily=Times New Roman;" parent="1" vertex="1">
          <mxGeometry x="45" y="965" width="240" height="40" as="geometry" />
        </mxCell>
        <mxCell id="hetKTDq1saLogg6b_bQB-5" value="&lt;span style=&quot;color: rgb(0, 0, 0); font-size: 12px; font-style: normal; font-variant-ligatures: normal; font-variant-caps: normal; font-weight: 400; letter-spacing: normal; orphans: 2; text-align: left; text-indent: 0px; text-transform: none; widows: 2; word-spacing: 0px; -webkit-text-stroke-width: 0px; background-color: rgb(251, 251, 251); text-decoration-thickness: initial; text-decoration-style: initial; text-decoration-color: initial; float: none; display: inline !important;&quot;&gt;Нет, клиент распределен &lt;br&gt;в другую очередь&lt;/span&gt;" style="text;whiteSpace=wrap;html=1;fontFamily=Times New Roman;" parent="1" vertex="1">
          <mxGeometry x="385" y="890" width="250" height="50" as="geometry" />
        </mxCell>
        <mxCell id="hetKTDq1saLogg6b_bQB-8" style="edgeStyle=orthogonalEdgeStyle;rounded=0;orthogonalLoop=1;jettySize=auto;html=1;entryX=1;entryY=0.5;entryDx=0;entryDy=0;endArrow=none;endFill=0;fontFamily=Times New Roman;" parent="1" source="hetKTDq1saLogg6b_bQB-6" target="9KOpK2-u_YjPfHabHejo-38" edge="1">
          <mxGeometry relative="1" as="geometry">
            <Array as="points">
              <mxPoint x="495" y="930" />
            </Array>
          </mxGeometry>
        </mxCell>
        <mxCell id="hetKTDq1saLogg6b_bQB-10" style="edgeStyle=orthogonalEdgeStyle;rounded=0;orthogonalLoop=1;jettySize=auto;html=1;entryX=0.5;entryY=0;entryDx=0;entryDy=0;endArrow=none;endFill=0;fontFamily=Times New Roman;" parent="1" source="hetKTDq1saLogg6b_bQB-6" target="hetKTDq1saLogg6b_bQB-9" edge="1">
          <mxGeometry relative="1" as="geometry" />
        </mxCell>
        <mxCell id="hetKTDq1saLogg6b_bQB-12" style="edgeStyle=orthogonalEdgeStyle;rounded=0;orthogonalLoop=1;jettySize=auto;html=1;endArrow=none;endFill=0;entryX=0.5;entryY=0;entryDx=0;entryDy=0;fontFamily=Times New Roman;" parent="1" source="hetKTDq1saLogg6b_bQB-6" target="hetKTDq1saLogg6b_bQB-14" edge="1">
          <mxGeometry relative="1" as="geometry">
            <mxPoint x="690" y="1110" as="targetPoint" />
          </mxGeometry>
        </mxCell>
        <mxCell id="hetKTDq1saLogg6b_bQB-6" value="&lt;span style=&quot;border-color: var(--border-color);&quot;&gt;Z&lt;sub style=&quot;border-color: var(--border-color); background-color: initial;&quot;&gt;оч2&lt;/sub&gt;&amp;lt;=&amp;nbsp;&lt;/span&gt;&lt;span style=&quot;border-color: var(--border-color);&quot;&gt;Z&lt;sub style=&quot;border-color: var(--border-color); background-color: initial;&quot;&gt;оч3&lt;/sub&gt;&lt;/span&gt;" style="rhombus;whiteSpace=wrap;html=1;fontFamily=Times New Roman;" parent="1" vertex="1">
          <mxGeometry x="390" y="985" width="210" height="80" as="geometry" />
        </mxCell>
        <mxCell id="hetKTDq1saLogg6b_bQB-98" style="edgeStyle=orthogonalEdgeStyle;rounded=0;orthogonalLoop=1;jettySize=auto;html=1;endArrow=none;endFill=0;entryX=0.5;entryY=0.004;entryDx=0;entryDy=0;entryPerimeter=0;" parent="1" source="hetKTDq1saLogg6b_bQB-9" target="hetKTDq1saLogg6b_bQB-99" edge="1">
          <mxGeometry relative="1" as="geometry">
            <mxPoint x="495" y="1190" as="targetPoint" />
          </mxGeometry>
        </mxCell>
        <mxCell id="hetKTDq1saLogg6b_bQB-9" value="Х&lt;sub style=&quot;border-color: var(--border-color);&quot;&gt;вх2&lt;/sub&gt;&lt;span style=&quot;&quot;&gt;=1&lt;/span&gt;" style="rounded=0;whiteSpace=wrap;html=1;fontFamily=Times New Roman;" parent="1" vertex="1">
          <mxGeometry x="435" y="1110" width="120" height="30" as="geometry" />
        </mxCell>
        <mxCell id="hetKTDq1saLogg6b_bQB-11" value="Да, клиент распределен &lt;br&gt;к первому клерку, &lt;br&gt;так как у него &lt;br&gt;наименьшая очередь" style="text;html=1;align=left;verticalAlign=middle;resizable=0;points=[];autosize=1;strokeColor=none;fillColor=none;fontFamily=Times New Roman;" parent="1" vertex="1">
          <mxGeometry x="330" y="1040" width="140" height="70" as="geometry" />
        </mxCell>
        <mxCell id="hetKTDq1saLogg6b_bQB-13" value="&lt;span style=&quot;color: rgb(0, 0, 0); font-size: 12px; font-style: normal; font-variant-ligatures: normal; font-variant-caps: normal; font-weight: 400; letter-spacing: normal; orphans: 2; text-align: left; text-indent: 0px; text-transform: none; widows: 2; word-spacing: 0px; -webkit-text-stroke-width: 0px; background-color: rgb(251, 251, 251); text-decoration-thickness: initial; text-decoration-style: initial; text-decoration-color: initial; float: none; display: inline !important;&quot;&gt;Нет, клиент распределен &lt;br&gt;к третьему клерку&lt;/span&gt;" style="text;whiteSpace=wrap;html=1;fontFamily=Times New Roman;" parent="1" vertex="1">
          <mxGeometry x="600" y="985" width="250" height="50" as="geometry" />
        </mxCell>
        <mxCell id="hetKTDq1saLogg6b_bQB-102" style="edgeStyle=orthogonalEdgeStyle;rounded=0;orthogonalLoop=1;jettySize=auto;html=1;endArrow=none;endFill=0;" parent="1" source="hetKTDq1saLogg6b_bQB-14" target="hetKTDq1saLogg6b_bQB-101" edge="1">
          <mxGeometry relative="1" as="geometry" />
        </mxCell>
        <mxCell id="hetKTDq1saLogg6b_bQB-14" value="Х&lt;sub style=&quot;border-color: var(--border-color);&quot;&gt;вх3&lt;/sub&gt;&lt;span style=&quot;&quot;&gt;=1&lt;/span&gt;" style="rounded=0;whiteSpace=wrap;html=1;fontFamily=Times New Roman;" parent="1" vertex="1">
          <mxGeometry x="630" y="1110" width="120" height="30" as="geometry" />
        </mxCell>
        <mxCell id="hetKTDq1saLogg6b_bQB-19" style="edgeStyle=orthogonalEdgeStyle;rounded=0;orthogonalLoop=1;jettySize=auto;html=1;endArrow=none;endFill=0;fontFamily=Times New Roman;entryX=0.5;entryY=0;entryDx=0;entryDy=0;" parent="1" source="hetKTDq1saLogg6b_bQB-18" target="hetKTDq1saLogg6b_bQB-24" edge="1">
          <mxGeometry relative="1" as="geometry">
            <mxPoint x="280" y="1290" as="targetPoint" />
          </mxGeometry>
        </mxCell>
        <mxCell id="hetKTDq1saLogg6b_bQB-25" style="edgeStyle=orthogonalEdgeStyle;rounded=0;orthogonalLoop=1;jettySize=auto;html=1;endArrow=none;endFill=0;entryX=0.5;entryY=0;entryDx=0;entryDy=0;fontFamily=Times New Roman;" parent="1" source="hetKTDq1saLogg6b_bQB-18" target="hetKTDq1saLogg6b_bQB-27" edge="1">
          <mxGeometry relative="1" as="geometry">
            <mxPoint x="120" y="1280" as="targetPoint" />
            <Array as="points">
              <mxPoint x="120" y="1190" />
            </Array>
          </mxGeometry>
        </mxCell>
        <mxCell id="hetKTDq1saLogg6b_bQB-18" value="T&lt;sub style=&quot;border-color: var(--border-color);&quot;&gt;обсл1&lt;/sub&gt;&lt;span style=&quot;border-color: var(--border-color);&quot;&gt;&amp;lt;=h и&amp;nbsp;&lt;/span&gt;T&lt;sub style=&quot;border-color: var(--border-color);&quot;&gt;обсл1&lt;/sub&gt;&lt;span style=&quot;border-color: var(--border-color);&quot;&gt;&amp;gt;0&lt;/span&gt;" style="rhombus;whiteSpace=wrap;html=1;fontFamily=Times New Roman;" parent="1" vertex="1">
          <mxGeometry x="175" y="1150" width="210" height="80" as="geometry" />
        </mxCell>
        <mxCell id="hetKTDq1saLogg6b_bQB-21" value="Нет, обслуживание &lt;br&gt;&lt;div style=&quot;&quot;&gt;&lt;span style=&quot;background-color: initial;&quot;&gt;еще не закончено или&lt;/span&gt;&lt;/div&gt;&lt;div style=&quot;&quot;&gt;&lt;span style=&quot;background-color: initial;&quot;&gt;не начилось&amp;nbsp;&lt;/span&gt;&lt;/div&gt;" style="text;html=1;align=left;verticalAlign=middle;resizable=0;points=[];autosize=1;strokeColor=none;fillColor=none;fontFamily=Times New Roman;" parent="1" vertex="1">
          <mxGeometry x="305" y="1220" width="130" height="60" as="geometry" />
        </mxCell>
        <mxCell id="hetKTDq1saLogg6b_bQB-33" style="edgeStyle=orthogonalEdgeStyle;rounded=0;orthogonalLoop=1;jettySize=auto;html=1;endArrow=none;endFill=0;entryX=0.5;entryY=0;entryDx=0;entryDy=0;fontFamily=Times New Roman;" parent="1" source="hetKTDq1saLogg6b_bQB-24" target="hetKTDq1saLogg6b_bQB-50" edge="1">
          <mxGeometry relative="1" as="geometry">
            <mxPoint x="280" y="1390" as="targetPoint" />
            <Array as="points">
              <mxPoint x="280" y="1370" />
            </Array>
          </mxGeometry>
        </mxCell>
        <mxCell id="hetKTDq1saLogg6b_bQB-24" value="Х&lt;sub style=&quot;border-color: var(--border-color);&quot;&gt;вых1&lt;/sub&gt;&lt;span style=&quot;&quot;&gt;=0&lt;/span&gt;" style="rounded=0;whiteSpace=wrap;html=1;fontFamily=Times New Roman;" parent="1" vertex="1">
          <mxGeometry x="220" y="1280" width="120" height="30" as="geometry" />
        </mxCell>
        <mxCell id="hetKTDq1saLogg6b_bQB-26" value="Да, обслуживание закончилось &lt;br&gt;обновляем поток выхода" style="text;html=1;align=left;verticalAlign=middle;resizable=0;points=[];autosize=1;strokeColor=none;fillColor=none;fontFamily=Times New Roman;" parent="1" vertex="1">
          <mxGeometry x="20" y="1150" width="180" height="40" as="geometry" />
        </mxCell>
        <mxCell id="hetKTDq1saLogg6b_bQB-28" style="edgeStyle=orthogonalEdgeStyle;rounded=0;orthogonalLoop=1;jettySize=auto;html=1;endArrow=none;endFill=0;entryX=0.5;entryY=0;entryDx=0;entryDy=0;fontFamily=Times New Roman;" parent="1" source="hetKTDq1saLogg6b_bQB-27" target="hetKTDq1saLogg6b_bQB-35" edge="1">
          <mxGeometry relative="1" as="geometry">
            <mxPoint x="120" y="1410" as="targetPoint" />
          </mxGeometry>
        </mxCell>
        <mxCell id="hetKTDq1saLogg6b_bQB-27" value="Х&lt;sub style=&quot;border-color: var(--border-color);&quot;&gt;вых1&lt;/sub&gt;&lt;span style=&quot;&quot;&gt;=1&lt;/span&gt;" style="rounded=0;whiteSpace=wrap;html=1;fontFamily=Times New Roman;" parent="1" vertex="1">
          <mxGeometry x="60" y="1280" width="120" height="30" as="geometry" />
        </mxCell>
        <mxCell id="hetKTDq1saLogg6b_bQB-32" style="edgeStyle=orthogonalEdgeStyle;rounded=0;orthogonalLoop=1;jettySize=auto;html=1;entryX=0.5;entryY=0;entryDx=0;entryDy=0;endArrow=none;endFill=0;fontFamily=Times New Roman;" parent="1" source="hetKTDq1saLogg6b_bQB-30" target="hetKTDq1saLogg6b_bQB-18" edge="1">
          <mxGeometry relative="1" as="geometry" />
        </mxCell>
        <mxCell id="hetKTDq1saLogg6b_bQB-30" value="Z&lt;sub style=&quot;border-color: var(--border-color); background-color: initial;&quot;&gt;общ1&lt;/sub&gt;&lt;span style=&quot;border-color: var(--border-color); background-color: initial;&quot;&gt;+=1&lt;/span&gt;" style="rounded=0;whiteSpace=wrap;html=1;fontFamily=Times New Roman;" parent="1" vertex="1">
          <mxGeometry x="200" y="1079" width="120" height="35" as="geometry" />
        </mxCell>
        <mxCell id="hetKTDq1saLogg6b_bQB-38" style="edgeStyle=orthogonalEdgeStyle;rounded=0;orthogonalLoop=1;jettySize=auto;html=1;entryX=0.5;entryY=0;entryDx=0;entryDy=0;endArrow=none;endFill=0;fontFamily=Times New Roman;" parent="1" source="hetKTDq1saLogg6b_bQB-35" target="hetKTDq1saLogg6b_bQB-37" edge="1">
          <mxGeometry relative="1" as="geometry" />
        </mxCell>
        <mxCell id="hetKTDq1saLogg6b_bQB-35" value="Z&lt;sub&gt;обс1&lt;/sub&gt;+=Z&lt;sub&gt;тек_обс1&lt;/sub&gt;" style="rounded=0;whiteSpace=wrap;html=1;fontFamily=Times New Roman;" parent="1" vertex="1">
          <mxGeometry x="60" y="1330" width="120" height="30" as="geometry" />
        </mxCell>
        <mxCell id="hetKTDq1saLogg6b_bQB-41" style="edgeStyle=orthogonalEdgeStyle;rounded=0;orthogonalLoop=1;jettySize=auto;html=1;entryX=0.5;entryY=0;entryDx=0;entryDy=0;endArrow=none;endFill=0;fontFamily=Times New Roman;" parent="1" source="hetKTDq1saLogg6b_bQB-37" target="hetKTDq1saLogg6b_bQB-40" edge="1">
          <mxGeometry relative="1" as="geometry" />
        </mxCell>
        <mxCell id="hetKTDq1saLogg6b_bQB-37" value="Z&lt;sub&gt;оч&lt;span style=&quot;border-color: var(--border-color);&quot;&gt;1&lt;/span&gt;&lt;/sub&gt;=Z&lt;sub&gt;общ&lt;span style=&quot;border-color: var(--border-color);&quot;&gt;1&lt;/span&gt;&lt;/sub&gt;&lt;span style=&quot;&quot;&gt;-&lt;/span&gt;Z&lt;sub&gt;обс&lt;span style=&quot;border-color: var(--border-color);&quot;&gt;1&lt;/span&gt;&lt;/sub&gt;" style="rounded=0;whiteSpace=wrap;html=1;fontFamily=Times New Roman;" parent="1" vertex="1">
          <mxGeometry x="60" y="1380" width="120" height="30" as="geometry" />
        </mxCell>
        <mxCell id="hetKTDq1saLogg6b_bQB-42" style="edgeStyle=orthogonalEdgeStyle;rounded=0;orthogonalLoop=1;jettySize=auto;html=1;endArrow=none;endFill=0;entryX=0.5;entryY=0;entryDx=0;entryDy=0;fontFamily=Times New Roman;" parent="1" source="hetKTDq1saLogg6b_bQB-40" target="hetKTDq1saLogg6b_bQB-44" edge="1">
          <mxGeometry relative="1" as="geometry">
            <mxPoint x="120" y="1680" as="targetPoint" />
          </mxGeometry>
        </mxCell>
        <mxCell id="hetKTDq1saLogg6b_bQB-40" value="&lt;span style=&quot;border-color: var(--border-color);&quot;&gt;Z&lt;sub style=&quot;border-color: var(--border-color);&quot;&gt;оч1&lt;/sub&gt;&lt;/span&gt;&lt;span style=&quot;border-color: var(--border-color);&quot;&gt;&amp;gt;6&lt;/span&gt;" style="rhombus;whiteSpace=wrap;html=1;fontFamily=Times New Roman;" parent="1" vertex="1">
          <mxGeometry x="15" y="1440" width="210" height="80" as="geometry" />
        </mxCell>
        <mxCell id="hetKTDq1saLogg6b_bQB-43" value="Да, клерк обслуживает &lt;br&gt;новых клиентов в &lt;br&gt;максимально &lt;br&gt;возможном количестве&amp;nbsp; &amp;nbsp;" style="text;html=1;align=left;verticalAlign=middle;resizable=0;points=[];autosize=1;strokeColor=none;fillColor=none;fontFamily=Times New Roman;" parent="1" vertex="1">
          <mxGeometry x="-10" y="1520" width="150" height="70" as="geometry" />
        </mxCell>
        <mxCell id="hetKTDq1saLogg6b_bQB-61" style="edgeStyle=orthogonalEdgeStyle;rounded=0;orthogonalLoop=1;jettySize=auto;html=1;endArrow=classicThin;endFill=1;fontFamily=Times New Roman;" parent="1" source="hetKTDq1saLogg6b_bQB-44" edge="1">
          <mxGeometry relative="1" as="geometry">
            <mxPoint x="550" y="1640" as="targetPoint" />
            <Array as="points">
              <mxPoint x="120" y="1640" />
              <mxPoint x="550" y="1640" />
            </Array>
          </mxGeometry>
        </mxCell>
        <mxCell id="hetKTDq1saLogg6b_bQB-44" value="Z&lt;sub&gt;тек_обс&lt;span style=&quot;border-color: var(--border-color);&quot;&gt;1&lt;/span&gt;&lt;/sub&gt;=6" style="rounded=0;whiteSpace=wrap;html=1;fontFamily=Times New Roman;" parent="1" vertex="1">
          <mxGeometry x="60" y="1590" width="120" height="30" as="geometry" />
        </mxCell>
        <mxCell id="hetKTDq1saLogg6b_bQB-46" value="Нет, клерк обслуживает &lt;br&gt;новых клиентов &amp;nbsp; &amp;nbsp;" style="text;html=1;align=left;verticalAlign=middle;resizable=0;points=[];autosize=1;strokeColor=none;fillColor=none;fontFamily=Times New Roman;" parent="1" vertex="1">
          <mxGeometry x="150" y="1510" width="150" height="40" as="geometry" />
        </mxCell>
        <mxCell id="hetKTDq1saLogg6b_bQB-48" style="edgeStyle=orthogonalEdgeStyle;rounded=0;orthogonalLoop=1;jettySize=auto;html=1;entryX=1;entryY=0.5;entryDx=0;entryDy=0;endArrow=none;endFill=0;fontFamily=Times New Roman;" parent="1" source="hetKTDq1saLogg6b_bQB-47" target="hetKTDq1saLogg6b_bQB-40" edge="1">
          <mxGeometry relative="1" as="geometry" />
        </mxCell>
        <mxCell id="hetKTDq1saLogg6b_bQB-62" style="edgeStyle=orthogonalEdgeStyle;rounded=0;orthogonalLoop=1;jettySize=auto;html=1;endArrow=none;endFill=0;fontFamily=Times New Roman;" parent="1" source="hetKTDq1saLogg6b_bQB-47" edge="1">
          <mxGeometry relative="1" as="geometry">
            <mxPoint x="280" y="1640" as="targetPoint" />
          </mxGeometry>
        </mxCell>
        <mxCell id="hetKTDq1saLogg6b_bQB-47" value="Z&lt;sub&gt;тек_обс&lt;span style=&quot;border-color: var(--border-color);&quot;&gt;1&lt;/span&gt;&lt;/sub&gt;=Z&lt;sub style=&quot;border-color: var(--border-color);&quot;&gt;оч1&lt;/sub&gt;" style="rounded=0;whiteSpace=wrap;html=1;fontFamily=Times New Roman;" parent="1" vertex="1">
          <mxGeometry x="220" y="1590" width="120" height="30" as="geometry" />
        </mxCell>
        <mxCell id="hetKTDq1saLogg6b_bQB-57" style="edgeStyle=orthogonalEdgeStyle;rounded=0;orthogonalLoop=1;jettySize=auto;html=1;fontFamily=Times New Roman;endArrow=classic;endFill=1;exitX=0.5;exitY=1;exitDx=0;exitDy=0;" parent="1" source="hetKTDq1saLogg6b_bQB-50" edge="1">
          <mxGeometry relative="1" as="geometry">
            <mxPoint x="550" y="1560" as="targetPoint" />
            <Array as="points">
              <mxPoint x="355" y="1480" />
              <mxPoint x="355" y="1560" />
              <mxPoint x="550" y="1560" />
            </Array>
          </mxGeometry>
        </mxCell>
        <mxCell id="hetKTDq1saLogg6b_bQB-50" value="Z&lt;sub style=&quot;border-color: var(--border-color);&quot;&gt;тек_обс1&lt;/sub&gt;&lt;span style=&quot;border-color: var(--border-color);&quot;&gt;&amp;gt;0&lt;/span&gt;" style="rhombus;whiteSpace=wrap;html=1;fontFamily=Times New Roman;" parent="1" vertex="1">
          <mxGeometry x="249" y="1400" width="210" height="80" as="geometry" />
        </mxCell>
        <mxCell id="hetKTDq1saLogg6b_bQB-51" value="Да, клерк &lt;br&gt;продолжает &lt;br&gt;обслуживать&amp;nbsp; &amp;nbsp;" style="text;html=1;align=left;verticalAlign=middle;resizable=0;points=[];autosize=1;strokeColor=none;fillColor=none;fontFamily=Times New Roman;" parent="1" vertex="1">
          <mxGeometry x="364" y="1500" width="100" height="60" as="geometry" />
        </mxCell>
        <mxCell id="hetKTDq1saLogg6b_bQB-53" value="Нет, клерк обслуживает&lt;br style=&quot;border-color: var(--border-color);&quot;&gt;новых клиентов&amp;nbsp; &amp;nbsp;&amp;nbsp;" style="text;html=1;align=left;verticalAlign=middle;resizable=0;points=[];autosize=1;strokeColor=none;fillColor=none;fontFamily=Times New Roman;" parent="1" vertex="1">
          <mxGeometry x="459" y="1400" width="150" height="40" as="geometry" />
        </mxCell>
        <mxCell id="hetKTDq1saLogg6b_bQB-54" style="edgeStyle=orthogonalEdgeStyle;rounded=0;orthogonalLoop=1;jettySize=auto;html=1;entryX=1;entryY=0.5;entryDx=0;entryDy=0;endArrow=none;endFill=0;fontFamily=Times New Roman;exitX=0.5;exitY=0;exitDx=0;exitDy=0;" parent="1" source="hetKTDq1saLogg6b_bQB-55" target="hetKTDq1saLogg6b_bQB-50" edge="1">
          <mxGeometry relative="1" as="geometry">
            <Array as="points">
              <mxPoint x="550" y="1440" />
            </Array>
          </mxGeometry>
        </mxCell>
        <mxCell id="hetKTDq1saLogg6b_bQB-58" style="edgeStyle=orthogonalEdgeStyle;rounded=0;orthogonalLoop=1;jettySize=auto;html=1;endArrow=none;endFill=0;entryX=0.5;entryY=0;entryDx=0;entryDy=0;fontFamily=Times New Roman;" parent="1" source="hetKTDq1saLogg6b_bQB-55" target="hetKTDq1saLogg6b_bQB-66" edge="1">
          <mxGeometry relative="1" as="geometry">
            <mxPoint x="550" y="1690" as="targetPoint" />
          </mxGeometry>
        </mxCell>
        <mxCell id="hetKTDq1saLogg6b_bQB-55" value="Z&lt;sub&gt;тек_обс&lt;span style=&quot;border-color: var(--border-color);&quot;&gt;1&lt;/span&gt;&lt;/sub&gt;=Z&lt;sub style=&quot;border-color: var(--border-color);&quot;&gt;оч1&lt;/sub&gt;" style="rounded=0;whiteSpace=wrap;html=1;fontFamily=Times New Roman;" parent="1" vertex="1">
          <mxGeometry x="490" y="1470" width="120" height="30" as="geometry" />
        </mxCell>
        <mxCell id="hetKTDq1saLogg6b_bQB-74" style="edgeStyle=orthogonalEdgeStyle;rounded=0;orthogonalLoop=1;jettySize=auto;html=1;entryX=0.5;entryY=0;entryDx=0;entryDy=0;endArrow=none;endFill=0;exitX=0;exitY=0.5;exitDx=0;exitDy=0;fontFamily=Times New Roman;" parent="1" source="hetKTDq1saLogg6b_bQB-64" target="hetKTDq1saLogg6b_bQB-73" edge="1">
          <mxGeometry relative="1" as="geometry" />
        </mxCell>
        <mxCell id="hetKTDq1saLogg6b_bQB-86" style="edgeStyle=orthogonalEdgeStyle;rounded=0;orthogonalLoop=1;jettySize=auto;html=1;entryX=0.5;entryY=0;entryDx=0;entryDy=0;endArrow=none;endFill=0;fontFamily=Times New Roman;" parent="1" source="hetKTDq1saLogg6b_bQB-64" target="hetKTDq1saLogg6b_bQB-88" edge="1">
          <mxGeometry relative="1" as="geometry">
            <mxPoint x="705" y="1850" as="targetPoint" />
            <Array as="points">
              <mxPoint x="705" y="1780" />
              <mxPoint x="705" y="1880" />
            </Array>
          </mxGeometry>
        </mxCell>
        <mxCell id="hetKTDq1saLogg6b_bQB-64" value="&lt;span style=&quot;border-color: var(--border-color);&quot;&gt;T&lt;sub style=&quot;border-color: var(--border-color);&quot;&gt;обсл1&lt;/sub&gt;&amp;lt;=h&lt;/span&gt;" style="rhombus;whiteSpace=wrap;html=1;fontFamily=Times New Roman;" parent="1" vertex="1">
          <mxGeometry x="445" y="1740" width="210" height="80" as="geometry" />
        </mxCell>
        <mxCell id="hetKTDq1saLogg6b_bQB-67" style="edgeStyle=orthogonalEdgeStyle;rounded=0;orthogonalLoop=1;jettySize=auto;html=1;entryX=0.5;entryY=0;entryDx=0;entryDy=0;endArrow=none;endFill=0;fontFamily=Times New Roman;" parent="1" source="hetKTDq1saLogg6b_bQB-66" target="hetKTDq1saLogg6b_bQB-64" edge="1">
          <mxGeometry relative="1" as="geometry" />
        </mxCell>
        <mxCell id="hetKTDq1saLogg6b_bQB-66" value="&lt;span style=&quot;font-size: 12px;&quot;&gt;T&lt;/span&gt;&lt;sub&gt;поиск1&lt;/sub&gt;=T&lt;sub style=&quot;border-color: var(--border-color);&quot;&gt;поиск_тов&lt;/sub&gt;&lt;span style=&quot;border-color: var(--border-color);&quot;&gt;*&lt;/span&gt;Z&lt;sub style=&quot;border-color: var(--border-color);&quot;&gt;тек_обс1&lt;/sub&gt;" style="rounded=0;whiteSpace=wrap;html=1;fontFamily=Times New Roman;" parent="1" vertex="1">
          <mxGeometry x="455" y="1670" width="190" height="30" as="geometry" />
        </mxCell>
        <mxCell id="hetKTDq1saLogg6b_bQB-70" value="Да, клерк заканчивает &lt;br&gt;обслуживать клиентов&amp;nbsp;" style="text;html=1;align=left;verticalAlign=middle;resizable=0;points=[];autosize=1;strokeColor=none;fillColor=none;fontFamily=Times New Roman;" parent="1" vertex="1">
          <mxGeometry x="655" y="1733" width="140" height="40" as="geometry" />
        </mxCell>
        <mxCell id="hetKTDq1saLogg6b_bQB-72" value="Нет, клерк продолжает &lt;br&gt;обслуживать клиентов" style="text;html=1;align=left;verticalAlign=middle;resizable=0;points=[];autosize=1;strokeColor=none;fillColor=none;fontFamily=Times New Roman;" parent="1" vertex="1">
          <mxGeometry x="309.5" y="1734" width="140" height="40" as="geometry" />
        </mxCell>
        <mxCell id="hetKTDq1saLogg6b_bQB-77" style="edgeStyle=orthogonalEdgeStyle;rounded=0;orthogonalLoop=1;jettySize=auto;html=1;entryX=0.5;entryY=0;entryDx=0;entryDy=0;endArrow=none;endFill=0;fontFamily=Times New Roman;" parent="1" source="hetKTDq1saLogg6b_bQB-73" target="hetKTDq1saLogg6b_bQB-76" edge="1">
          <mxGeometry relative="1" as="geometry" />
        </mxCell>
        <mxCell id="hetKTDq1saLogg6b_bQB-79" style="edgeStyle=orthogonalEdgeStyle;rounded=0;orthogonalLoop=1;jettySize=auto;html=1;endArrow=none;endFill=0;entryX=0.5;entryY=0;entryDx=0;entryDy=0;exitX=0;exitY=0.5;exitDx=0;exitDy=0;fontFamily=Times New Roman;" parent="1" source="hetKTDq1saLogg6b_bQB-73" target="hetKTDq1saLogg6b_bQB-81" edge="1">
          <mxGeometry relative="1" as="geometry">
            <mxPoint x="260" y="1940" as="targetPoint" />
            <Array as="points">
              <mxPoint x="245" y="1965" />
            </Array>
          </mxGeometry>
        </mxCell>
        <mxCell id="hetKTDq1saLogg6b_bQB-73" value="&lt;span style=&quot;border-color: var(--border-color);&quot;&gt;T&lt;sub style=&quot;border-color: var(--border-color);&quot;&gt;обсл1&lt;/sub&gt;&amp;gt;=h&lt;/span&gt;" style="rhombus;whiteSpace=wrap;html=1;fontFamily=Times New Roman;" parent="1" vertex="1">
          <mxGeometry x="265" y="1925" width="210" height="80" as="geometry" />
        </mxCell>
        <mxCell id="hetKTDq1saLogg6b_bQB-96" style="edgeStyle=orthogonalEdgeStyle;rounded=0;orthogonalLoop=1;jettySize=auto;html=1;endArrow=none;endFill=0;" parent="1" source="hetKTDq1saLogg6b_bQB-76" edge="1">
          <mxGeometry relative="1" as="geometry">
            <mxPoint x="246" y="2140" as="targetPoint" />
            <Array as="points">
              <mxPoint x="370" y="2140" />
            </Array>
          </mxGeometry>
        </mxCell>
        <mxCell id="hetKTDq1saLogg6b_bQB-76" value="T&lt;sub style=&quot;border-color: var(--border-color);&quot;&gt;обсл1&lt;/sub&gt;=T&lt;sub style=&quot;border-color: var(--border-color);&quot;&gt;обсл1 &lt;/sub&gt;&lt;span style=&quot;border-color: var(--border-color);&quot;&gt;- h&lt;/span&gt;" style="rounded=0;whiteSpace=wrap;html=1;fontFamily=Times New Roman;" parent="1" vertex="1">
          <mxGeometry x="312.5" y="2040" width="115" height="30" as="geometry" />
        </mxCell>
        <mxCell id="hetKTDq1saLogg6b_bQB-78" value="1" style="text;html=1;align=center;verticalAlign=middle;resizable=0;points=[];autosize=1;strokeColor=none;fillColor=none;fontFamily=Times New Roman;" parent="1" vertex="1">
          <mxGeometry x="369" y="2005" width="30" height="30" as="geometry" />
        </mxCell>
        <mxCell id="hetKTDq1saLogg6b_bQB-80" value="0" style="text;html=1;align=center;verticalAlign=middle;resizable=0;points=[];autosize=1;strokeColor=none;fillColor=none;fontFamily=Times New Roman;" parent="1" vertex="1">
          <mxGeometry x="235" y="1930" width="30" height="30" as="geometry" />
        </mxCell>
        <mxCell id="hetKTDq1saLogg6b_bQB-94" style="edgeStyle=orthogonalEdgeStyle;rounded=0;orthogonalLoop=1;jettySize=auto;html=1;endArrow=classicThin;endFill=1;" parent="1" source="hetKTDq1saLogg6b_bQB-81" edge="1">
          <mxGeometry relative="1" as="geometry">
            <mxPoint x="413" y="630" as="targetPoint" />
            <Array as="points">
              <mxPoint x="245" y="2140" />
              <mxPoint x="-30" y="2140" />
              <mxPoint x="-30" y="630" />
            </Array>
          </mxGeometry>
        </mxCell>
        <mxCell id="hetKTDq1saLogg6b_bQB-81" value="T&lt;sub style=&quot;border-color: var(--border-color);&quot;&gt;обсл1&lt;/sub&gt;=0" style="rounded=0;whiteSpace=wrap;html=1;fontFamily=Times New Roman;" parent="1" vertex="1">
          <mxGeometry x="190" y="2040" width="110" height="30" as="geometry" />
        </mxCell>
        <mxCell id="hetKTDq1saLogg6b_bQB-91" style="edgeStyle=orthogonalEdgeStyle;rounded=0;orthogonalLoop=1;jettySize=auto;html=1;entryX=0.5;entryY=1;entryDx=0;entryDy=0;endArrow=none;endFill=0;fontFamily=Times New Roman;" parent="1" source="hetKTDq1saLogg6b_bQB-84" target="hetKTDq1saLogg6b_bQB-88" edge="1">
          <mxGeometry relative="1" as="geometry" />
        </mxCell>
        <mxCell id="hetKTDq1saLogg6b_bQB-97" style="edgeStyle=orthogonalEdgeStyle;rounded=0;orthogonalLoop=1;jettySize=auto;html=1;endArrow=none;endFill=0;" parent="1" source="hetKTDq1saLogg6b_bQB-84" edge="1">
          <mxGeometry relative="1" as="geometry">
            <mxPoint x="370" y="2140" as="targetPoint" />
            <Array as="points">
              <mxPoint x="705" y="2140" />
            </Array>
          </mxGeometry>
        </mxCell>
        <mxCell id="hetKTDq1saLogg6b_bQB-84" value="T&lt;sub style=&quot;border-color: var(--border-color);&quot;&gt;обсл1&lt;/sub&gt;=4+T&lt;sub style=&quot;border-color: var(--border-color);&quot;&gt;поиск1&lt;/sub&gt;" style="rounded=0;whiteSpace=wrap;html=1;fontFamily=Times New Roman;" parent="1" vertex="1">
          <mxGeometry x="650" y="2040" width="110" height="30" as="geometry" />
        </mxCell>
        <mxCell id="hetKTDq1saLogg6b_bQB-93" style="edgeStyle=orthogonalEdgeStyle;rounded=0;orthogonalLoop=1;jettySize=auto;html=1;endArrow=none;endFill=0;fontFamily=Times New Roman;" parent="1" source="hetKTDq1saLogg6b_bQB-88" edge="1">
          <mxGeometry relative="1" as="geometry">
            <mxPoint x="370" y="1890" as="targetPoint" />
          </mxGeometry>
        </mxCell>
        <mxCell id="hetKTDq1saLogg6b_bQB-88" value="Z&lt;sub style=&quot;border-color: var(--border-color);&quot;&gt;тек_обс1&lt;/sub&gt;&lt;span style=&quot;border-color: var(--border-color);&quot;&gt;&amp;gt;0&lt;/span&gt;" style="rhombus;whiteSpace=wrap;html=1;fontFamily=Times New Roman;" parent="1" vertex="1">
          <mxGeometry x="600" y="1850" width="210" height="80" as="geometry" />
        </mxCell>
        <mxCell id="hetKTDq1saLogg6b_bQB-89" value="Нет, клерк продолжает обслуживать&amp;nbsp;&amp;nbsp;" style="text;html=1;align=left;verticalAlign=middle;resizable=0;points=[];autosize=1;strokeColor=none;fillColor=none;fontFamily=Times New Roman;" parent="1" vertex="1">
          <mxGeometry x="420" y="1860" width="210" height="30" as="geometry" />
        </mxCell>
        <mxCell id="hetKTDq1saLogg6b_bQB-90" value="Да, клерк &lt;br&gt;обслуживает новых&lt;br&gt;клиентов&amp;nbsp; &amp;nbsp;" style="text;html=1;align=left;verticalAlign=middle;resizable=0;points=[];autosize=1;strokeColor=none;fillColor=none;fontFamily=Times New Roman;" parent="1" vertex="1">
          <mxGeometry x="719" y="1925" width="120" height="60" as="geometry" />
        </mxCell>
        <mxCell id="hetKTDq1saLogg6b_bQB-103" style="edgeStyle=orthogonalEdgeStyle;rounded=0;orthogonalLoop=1;jettySize=auto;html=1;endArrow=none;endFill=0;" parent="1" source="hetKTDq1saLogg6b_bQB-99" edge="1">
          <mxGeometry relative="1" as="geometry">
            <mxPoint x="245" y="2140" as="targetPoint" />
            <Array as="points">
              <mxPoint x="495" y="1360" />
              <mxPoint x="840" y="1360" />
              <mxPoint x="840" y="2140" />
              <mxPoint x="245" y="2140" />
            </Array>
          </mxGeometry>
        </mxCell>
        <mxCell id="hetKTDq1saLogg6b_bQB-99" value="Аналогично первому клерку" style="text;html=1;align=center;verticalAlign=middle;resizable=0;points=[];autosize=1;strokeColor=none;fillColor=none;" parent="1" vertex="1">
          <mxGeometry x="405" y="1270" width="180" height="30" as="geometry" />
        </mxCell>
        <mxCell id="hetKTDq1saLogg6b_bQB-104" style="edgeStyle=orthogonalEdgeStyle;rounded=0;orthogonalLoop=1;jettySize=auto;html=1;endArrow=none;endFill=0;" parent="1" source="hetKTDq1saLogg6b_bQB-101" edge="1">
          <mxGeometry relative="1" as="geometry">
            <mxPoint x="690" y="1360" as="targetPoint" />
          </mxGeometry>
        </mxCell>
        <mxCell id="hetKTDq1saLogg6b_bQB-101" value="Аналогично первому клерку" style="text;html=1;align=center;verticalAlign=middle;resizable=0;points=[];autosize=1;strokeColor=none;fillColor=none;" parent="1" vertex="1">
          <mxGeometry x="600" y="1190" width="180" height="30" as="geometry" />
        </mxCell>
        <mxCell id="hetKTDq1saLogg6b_bQB-107" value="t+=h" style="rounded=0;whiteSpace=wrap;html=1;" parent="1" vertex="1">
          <mxGeometry x="354" y="740" width="120" height="30" as="geometry" />
        </mxCell>
        <mxCell id="hetKTDq1saLogg6b_bQB-109" value="Конец" style="strokeWidth=1;html=1;shape=mxgraph.flowchart.terminator;whiteSpace=wrap;fontFamily=Times New Roman;" parent="1" vertex="1">
          <mxGeometry x="354" y="2210" width="90" height="50" as="geometry" />
        </mxCell>
      </root>
    </mxGraphModel>
  </diagram>
</mxfile>
